<?xml version="1.0" encoding="UTF-8" standalone="no"?>
<!-- Generator: Adobe Illustrator 26.0.3, SVG Export Plug-In . SVG Version: 6.00 Build 0)  -->

<svg
   version="1.1"
   id="Layer_1"
   x="0px"
   y="0px"
   viewBox="0 0 1024 1024"
   xml:space="preserve"
   sodipodi:docname="logo.svg"
   width="1024"
   height="1024"
   inkscape:version="1.3.2 (1:1.3.2+202311252150+091e20ef0f)"
   xmlns:inkscape="http://www.inkscape.org/namespaces/inkscape"
   xmlns:sodipodi="http://sodipodi.sourceforge.net/DTD/sodipodi-0.dtd"
   xmlns="http://www.w3.org/2000/svg"
   xmlns:svg="http://www.w3.org/2000/svg"><defs
   id="defs2" /><sodipodi:namedview
   id="namedview2"
   pagecolor="#ffffff"
   bordercolor="#000000"
   borderopacity="0.25"
   inkscape:showpageshadow="2"
   inkscape:pageopacity="0.0"
   inkscape:pagecheckerboard="0"
   inkscape:deskcolor="#d1d1d1"
   inkscape:zoom="0.49373179"
   inkscape:cx="408.11632"
   inkscape:cy="461.78919"
   inkscape:window-width="1920"
   inkscape:window-height="1016"
   inkscape:window-x="0"
   inkscape:window-y="34"
   inkscape:window-maximized="1"
   inkscape:current-layer="Layer_1" />
<style
   type="text/css"
   id="style1">
	.st0{fill:none;}
	.st1{fill:url(#SVGID_1_);}
</style>
<rect
   class="st0"
   width="1024"
   height="1024"
   id="rect1"
   x="0"
   y="0" />
<linearGradient
   id="SVGID_1_"
   gradientUnits="userSpaceOnUse"
   x1="339.43539"
   y1="-304.91821"
   x2="1000.4565"
   y2="356.10291"
   gradientTransform="matrix(1.2104,0,0,1.2104,-216.4524,305.0232)">
	<stop
   offset="0.25"
   style="stop-color:#CA7418"
   id="stop1" />
	<stop
   offset="0.85"
   style="stop-color:#FF0000"
   id="stop2" />
</linearGradient>
<polygon
   class="st1"
   points="536.2,700.8 899.3,700.8 927.2,673 899.3,645.1 637.9,645.1 521.7,528.9 637.9,412.7 899.3,412.7 927.2,384.9 899.3,357.1 637.9,357.1 521.7,240.9 637.9,124.7 899.3,124.7 927.2,96.8 899.3,69 124.7,69 96.8,96.8 124.7,124.7 342.5,124.7 457.5,239.6 457.5,674.2 360.7,771 263.9,674.2 263.9,248.1 332.9,317.1 332.9,645.1 360.7,673 388.5,645.1 388.5,267.5 314.7,193.7 96.8,193.7 0,96.8 96.8,0 927.2,0 1024,96.8 927.2,193.7 665.7,193.7 618.5,240.9 665.7,288.1 927.2,288.1 1024,384.9 927.2,481.7 665.7,481.7 618.5,528.9 665.7,576.1 927.2,576.1 1024,673 927.2,769.8 467.2,769.8 "
   id="polygon2"
   style="fill:url(#SVGID_1_)"
   transform="translate(0,126.5)" />
</svg>
